<?xml version="1.0" encoding="UTF-8" standalone="no"?>
<!-- Generator: Adobe Illustrator 16.0.4, SVG Export Plug-In . SVG Version: 6.00 Build 0)  -->

<svg
   xmlns:dc="http://purl.org/dc/elements/1.1/"
   xmlns:cc="http://creativecommons.org/ns#"
   xmlns:rdf="http://www.w3.org/1999/02/22-rdf-syntax-ns#"
   xmlns:svg="http://www.w3.org/2000/svg"
   xmlns="http://www.w3.org/2000/svg"
   xmlns:sodipodi="http://sodipodi.sourceforge.net/DTD/sodipodi-0.dtd"
   xmlns:inkscape="http://www.inkscape.org/namespaces/inkscape"
   version="1.1"
   id="Layer_1"
   x="0px"
   y="0px"
   width="96.917999"
   height="96.917999"
   viewBox="0 0 96.917998 96.917999"
   enable-background="new 0 0 841.89 595.276"
   xml:space="preserve"
   sodipodi:docname="edulution_map_only.svg"
   inkscape:version="0.92.4 (5da689c313, 2019-01-14)"><metadata
   id="metadata871"><rdf:RDF><cc:Work
       rdf:about=""><dc:format>image/svg+xml</dc:format><dc:type
         rdf:resource="http://purl.org/dc/dcmitype/StillImage" /><dc:title></dc:title></cc:Work></rdf:RDF></metadata><defs
   id="defs869"><clipPath
     id="SVGID_2_-8"><rect
       height="595.276"
       width="841.89001"
       id="use847-1"
       x="0"
       y="0" /></clipPath></defs><sodipodi:namedview
   pagecolor="#ffffff"
   bordercolor="#666666"
   borderopacity="1"
   objecttolerance="10"
   gridtolerance="10"
   guidetolerance="10"
   inkscape:pageopacity="0"
   inkscape:pageshadow="2"
   inkscape:window-width="3840"
   inkscape:window-height="2093"
   id="namedview867"
   showgrid="false"
   inkscape:zoom="2.8793366"
   inkscape:cx="225.94516"
   inkscape:cy="-101.57556"
   inkscape:window-x="4080"
   inkscape:window-y="-18"
   inkscape:window-maximized="1"
   inkscape:current-layer="Layer_1" />

<path
   style="fill:#fdc41f"
   clip-path="url(#SVGID_2_-8)"
   d="m 594.614,241.633 2.303,0.576 c -0.335,-0.356 -0.716,-0.634 -1.164,-0.722 -0.383,0.017 -0.778,0.091 -1.139,0.146 m 36.409,27.745 c -0.237,0.56 -0.464,0.766 -0.783,1.242 -0.279,0.417 -0.393,1.245 -0.963,1.385 0.015,0.627 -0.213,0.476 -0.476,0.907 -0.262,0.428 -0.256,0.928 -0.46,1.369 -0.422,0.913 -1.174,1.641 -1.699,2.477 -0.25,0.399 -0.298,0.658 -0.649,1.009 -0.377,0.374 -0.775,0.697 -1.167,1.055 -0.685,0.623 -1.479,1.404 -1.961,2.11 -0.421,0.614 -1.132,1.087 -1.252,1.831 -0.021,0.136 0.007,0.408 -0.033,0.524 -0.061,0.175 -0.262,0.462 -0.309,0.618 -0.105,0.357 -0.209,1.115 -0.094,1.496 0.055,0.181 0.281,0.337 0.308,0.418 0.074,0.229 0.067,0.417 0.126,0.676 0.115,0.516 0.122,0.982 0.193,1.502 0.129,0.935 0.12,1.809 0,2.781 -0.104,0.837 0.097,1.854 -0.22,2.632 -0.131,0.326 -0.406,0.859 -0.629,1.146 -0.358,0.459 -0.773,0.432 -1.262,0.625 -0.627,0.248 -1.151,0.631 -1.731,1.006 -0.792,0.511 -1.007,1.083 -0.997,2.053 0.008,0.8 0.076,1.593 -0.192,2.301 -0.354,0.932 -0.879,1.449 -1.523,2.169 -0.439,0.489 -0.537,0.48 -0.587,1.146 -0.041,0.555 -0.119,0.789 -0.43,1.258 -0.406,0.609 -0.825,1.221 -1.247,1.821 -0.864,1.228 -1.715,2.55 -3.306,2.866 -0.781,0.156 -1.567,0.389 -2.307,0.722 -1.028,0.462 -1.647,0.575 -2.825,0.58 -0.615,0.002 -1.049,0.182 -1.355,-0.38 -0.115,-0.212 -0.17,-0.713 -0.236,-0.948 -0.229,-0.813 -0.297,-1.646 -0.571,-2.364 -0.244,-0.638 -0.497,-1.433 -0.762,-2.067 -0.162,-0.389 -0.295,-0.493 -0.387,-0.945 -0.134,-0.657 -0.054,-0.939 -0.388,-1.536 -0.332,-0.594 -0.529,-1.336 -0.849,-1.945 -0.101,-0.193 -0.385,-0.338 -0.501,-0.557 -0.085,-0.16 -0.13,-0.403 -0.188,-0.58 -0.22,-0.666 -0.52,-1.44 -0.758,-2.097 -0.275,-0.764 -0.678,-1.476 -0.775,-2.307 -0.115,-0.978 0.291,-1.815 0.397,-2.679 0.06,-0.475 -0.07,-0.9 0.075,-1.364 0.062,-0.194 0.248,-0.328 0.308,-0.565 0.038,-0.151 -0.006,-0.418 -0.009,-0.576 -0.009,-0.454 -0.035,-0.745 0.241,-1.106 0.288,-0.378 0.562,-0.257 0.727,-0.803 0.111,-0.367 -0.012,-0.953 -0.009,-1.347 0.003,-0.494 -0.136,-0.735 -0.244,-1.103 -0.213,-0.722 -0.026,-1.641 -0.327,-2.36 -0.376,-0.904 -1.22,-1.311 -1.496,-2.296 -0.164,-0.585 -0.185,-0.521 -0.671,-0.912 -0.283,-0.23 -0.81,-0.679 -0.926,-1.003 -0.137,-0.382 0.02,-1.109 0.02,-1.534 0,-0.291 -0.08,-0.698 -0.009,-0.974 0.082,-0.318 0.313,-0.45 0.412,-0.758 0.08,-0.251 0.054,-1.083 -0.011,-1.342 -0.08,-0.324 -0.317,-0.456 -0.413,-0.763 -0.084,-0.276 0.055,-0.647 -0.009,-0.944 -0.901,-0.12 -1.759,0.135 -2.567,0.027 -0.821,-0.11 -0.58,-0.164 -0.996,-0.83 -0.308,-0.492 -0.646,-0.855 -1.193,-0.947 -0.915,-0.155 -1.764,0.059 -2.509,0.429 -0.205,0.103 -0.352,0.248 -0.57,0.34 -0.18,0.076 -0.405,0.105 -0.58,0.19 -0.498,0.241 -0.524,0.373 -1.147,0.387 -0.941,0.024 -1.949,0.089 -2.887,0 -0.404,-0.039 -0.744,-0.145 -1.141,-0.196 -0.503,-0.064 -1.043,0.088 -1.544,0.009 -1.71,-0.269 -3.018,-1.838 -4.227,-2.978 -0.545,-0.513 -1.084,-1.423 -1.38,-2.163 -0.107,-0.269 -0.303,-0.632 -0.342,-0.949 -0.053,-0.436 0.14,-0.986 0.03,-1.405 -0.061,-0.23 -0.323,-0.143 -0.419,-0.359 -0.024,-0.055 -0.125,-0.576 -0.133,-0.643 -0.041,-0.316 -0.149,-0.686 -0.193,-0.94 -0.064,-0.37 -0.255,-0.777 -0.248,-1.124 0.006,-0.321 0.209,-0.727 0.206,-1.145 -0.012,-1.819 -0.729,-3.395 -0.048,-5.184 0.554,-1.459 1.266,-3.016 2.406,-4.183 0.604,-0.617 1.442,-0.819 2.203,-1.173 1.087,-0.507 1.065,-1.42 1.197,-2.51 0.059,-0.48 -0.155,-1.096 -0.023,-1.55 0.01,-0.032 0.383,-0.533 0.402,-0.56 0.109,-0.143 0.194,-0.28 0.332,-0.426 0.291,-0.307 0.82,-0.51 1.203,-0.683 0.451,-0.204 0.983,-0.465 1.499,-0.454 -10e-4,-0.526 0.991,-0.665 1.38,-0.776 0.87,-0.248 1.819,-0.15 2.745,-0.15 0.771,0 1.309,0.044 2.007,-0.288 0.587,-0.279 1.12,-0.566 1.779,-0.723 1.104,-0.264 2.157,-0.193 3.295,-0.322 0.077,-0.009 0.159,-0.022 0.241,-0.035 l -0.668,-0.167 c 0.552,0 1.173,-0.08 1.721,-0.004 0.03,0.005 0.056,0.019 0.086,0.025 0.591,-0.029 1.14,0.091 1.431,0.704 -0.056,0.014 -0.111,0.028 -0.169,0.043 l -0.098,-0.025 c 0.05,0.053 0.102,0.103 0.15,0.158 0.344,0.401 0.446,0.98 0.712,1.406 0.298,0.48 1.058,1.15 1.532,1.534 0.53,0.43 0.962,0.443 1.535,0.702 0.368,0.165 0.607,0.486 0.975,0.656 0.27,0.126 0.643,0.153 0.954,0.322 0.419,0.229 0.812,0.545 1.348,0.429 0.865,-0.187 0.653,-0.757 0.777,-1.513 0.81,-0.136 1.268,0.032 1.899,0.402 0.623,0.365 1.405,0.79 2.147,0.921 1.463,0.258 2.923,-0.165 4.374,0.24 0.806,0.225 1.479,0.186 2.12,0.757 0.574,0.514 0.239,1.019 0.375,1.684 0.099,0.484 0.217,0.363 0.402,0.756 -0.008,0.135 -0.02,0.269 -0.036,0.402 0.107,0.205 0.236,0.352 0.357,0.569 0.274,0.49 0.609,1.851 1.16,1.955 0.071,0.868 0.43,1.32 0.801,2.064 0.369,0.739 0.63,1.524 0.912,2.297 0.699,1.909 1.613,3.951 2.774,5.774 0.178,0.277 0.525,0.513 0.683,0.8 0.212,0.386 0.263,0.808 0.561,1.166 0.481,0.577 1.537,1.245 2.21,1.631 0.801,0.459 1.304,0.006 2.06,-0.191 1.017,-0.265 2.805,0.178 3.614,-0.515 0.205,0.949 0.068,1.922 -0.288,2.762 m 18.139,5.091 c 0,-26.764 -21.696,-48.459 -48.459,-48.459 -26.764,0 -48.459,21.695 -48.459,48.459 0,26.763 21.695,48.459 48.459,48.459 26.763,0 48.459,-21.696 48.459,-48.459"
   id="path854"
   inkscape:connector-curvature="0"
   transform="translate(-552.244,-226.01)" /></svg>